# ProBuilder 5.1.1
# https://unity3d.com/unity/features/worldbuilding/probuilder
# 31.03.2024 10:45:58

mtllib ./EntranceRailings.mtl
o EntranceRailings

g EntranceRailings
v 0.2 -0.05 0.05
v -0.7 -0.05 0.05
v 0.2 0.05 0.05
v -0.7 0.05 0.05
v -0.7 -0.05 -0.05
v -0.7 0.05 -0.05
v 0.2 -0.05 -0.05
v 0.2 0.05 -0.05
v -0.7 -0.04999995 0.05000114
v -0.6000001 -0.04999995 0.05000114
v -0.7 -3.2 0.05000114
v -0.6000001 -3.2 0.05000114
v -0.6000001 -0.04999995 -0.05000114
v -0.6000001 -3.2 -0.05000114
v -0.7 -0.0496248 -0.05000114
v -0.7 -3.2 -0.05000114
v 0.1999996 -3.3 0.04999924
v -0.7000005 -3.299999 0.04999924
v 0.1999996 -3.2 0.04999924
v -0.7000005 -3.2 0.04999924
v -0.7000005 -3.299999 -0.04999924
v -0.7000005 -3.2 -0.04999924
v 0.1999996 -3.3 -0.04999924
v 0.1999996 -3.2 -0.04999924

vt 0.2 -0.05
vt -0.7 -0.05
vt 0.2 0.05
vt -0.7 0.05
vt 0.05 -0.05
vt -0.05 -0.05
vt 0.05 0.05
vt -0.05 0.05
vt 0.7 -0.05
vt -0.2 -0.05
vt 0.7 0.05
vt -0.2 0.05
vt 0.04999995 -1.55
vt -0.05000019 -1.55
vt 0.05000019 1.6
vt -0.04999995 1.6
vt 0.05000101 -1.55
vt -0.05000101 1.6
vt 0.04999948 -1.55
vt 0.04999971 1.6
vt -0.05000142 -1.55
vt -0.04999995 0.05000114
vt 0.04999995 0.05000114
vt -0.04999995 -0.05000114
vt 0.04999995 -0.05000114
vt 0.05581576 -0.05581615
vt -0.04418486 -0.05581615
vt 0.05581433 0.04418589
vt -0.04418486 0.04418448
vt -0.7 -0.04999995
vt -0.7 0.05000019
vt 0.05 0.04999995
vt -0.05 0.04999995
vt 0.7 -0.04999971
vt -0.2 -0.04999995
vt 0.7 0.04999995
vt -0.2 0.04999995
vt 0.05 -0.04999995
vt -0.05 -0.04999995
vt 0.7 0.05
vt 0.7 -0.05

vn 0 0 1
vn -1 0 0
vn 0 0 -1
vn 1 0 0
vn 0 1 0
vn 0 -1 0
vn 0.003751467 0.9999859 0.003751378
vn 0.001875734 0.999993 0.001875689

usemtl Lit
f 3/3/1 4/4/1 2/2/1 1/1/1
f 4/7/2 6/8/2 5/6/2 2/5/2
f 6/11/3 8/12/3 7/10/3 5/9/3
f 8/7/4 3/8/4 1/6/4 7/5/4
f 8/10/5 6/9/5 4/11/5 3/12/5
f 1/3/6 2/4/6 5/2/6 7/1/6
f 11/15/1 12/16/1 10/14/1 9/13/1
f 12/15/4 14/18/4 13/14/4 10/17/4
f 14/20/3 16/18/3 15/14/3 13/19/3
f 16/15/2 11/18/2 9/21/2 15/17/2
f 16/24/6 14/25/6 12/23/6 11/22/6
f 9/28/8 10/29/5 13/27/8 15/26/7
f 19/3/1 20/31/1 18/30/1 17/1/1
f 20/32/2 22/33/2 21/6/2 18/5/2
f 22/36/3 24/37/3 23/35/3 21/34/3
f 24/32/4 19/33/4 17/39/4 23/38/4
f 24/10/5 22/41/5 20/40/5 19/12/5
f 17/3/6 18/4/6 21/2/6 23/1/6

