# ProBuilder 5.1.1
# https://unity3d.com/unity/features/worldbuilding/probuilder
# 31.03.2024 10:46:06

mtllib ./StairwellRailings.mtl
o StairwellRailings

g StairwellRailings
v 0.2000002 -0.05 0.05
v -0.6999997 -0.05 0.05
v 0.2000002 0.05 0.05
v -0.6999997 0.05 0.05
v -0.6999997 -0.05 -0.05
v -0.6999997 0.05 -0.05
v 0.2000002 -0.05 -0.05
v 0.2000002 0.05 -0.05
v 2.127273 -2.150018 3.049999
v -0.5999997 -2.15 0.05000019
v 2.027273 -2.150018 3.049999
v -0.7000229 -2.150766 0.05201817
v -0.6000235 -2.050766 0.05201817
v -0.7000229 -2.050766 0.05201817
v 2.127273 -2.050018 3.049999
v 2.027273 -2.050018 3.049999
v 2.927273 -2.050018 3.049999
v 2.927273 -2.150018 3.049999
v 2.027273 -2.050019 3.15
v 2.027273 -2.150019 3.15
v 2.927273 -2.050019 3.15
v 2.927273 -2.150019 3.15
v 0.2000003 -2.049999 -0.04999924
v -0.6999996 -2.049999 -0.04999924
v 0.2000003 -2.149999 -0.04999924
v -0.6999996 -2.149999 -0.04999924
v -0.6999996 -2.05 0.05000114
v -0.6999996 -2.15 0.05000114
v 0.2000003 -2.05 0.05000114
v 0.2000003 -2.15 0.05000114
v -0.5999997 0.04999995 0.05000019
v -3.327273 0.049999 3.049999
v -0.7 0.04999995 0.05000019
v -3.427296 0.0507648 3.047981
v -3.327296 -0.04923511 3.047981
v -3.427296 -0.04923511 3.047981
v -0.5999997 -0.04999995 0.05000019
v -0.7 -0.04999995 0.05000019
v -0.6999996 -0.04999995 0.05000019
v -0.6999996 -2.05 0.05000019
v -0.5999997 -2.05 0.05000019
v -0.5999997 -0.04999995 -0.05000019
v -0.5999997 -2.05 -0.05000019
v -0.6999996 -0.04999995 -0.05000019
v -0.6999996 -2.05 -0.05000019
v 2.927273 -0.05001903 3.150002
v 2.027272 -0.05001891 3.150002
v 2.927273 0.04998088 3.150002
v 2.027272 0.04998088 3.150002
v 2.027272 -0.05001891 3.050003
v 2.027272 0.04998088 3.050003
v 2.927273 -0.05001903 3.050003
v 2.927273 0.04998088 3.050003
v 2.127273 -0.05001903 3.150003
v 2.027273 -2.050019 3.150003
v 2.127273 -2.050019 3.150003
v 2.127273 -0.05001903 3.050001
v 2.127273 -2.050019 3.050001
v 2.027273 -2.050019 3.050001
v 3.177272 -2.15 3.15
v 2.277272 -2.15 3.15
v 3.177272 -2.05 3.15
v 2.277272 -2.05 3.15
v 2.277272 -2.15 3.050001
v 2.277272 -2.05 3.050001
v 3.177272 -2.15 3.050001
v 3.177272 -2.05 3.050001

vt 0.2000002 -0.05
vt -0.6999997 -0.05
vt 0.2000002 0.05
vt -0.6999997 0.05
vt 0.05 -0.05
vt -0.05 -0.05
vt 0.05 0.05
vt -0.05 0.05
vt 0.6999997 -0.05
vt -0.2000002 -0.05
vt 0.6999997 0.05
vt -0.2000002 0.05
vt 2.972981 -2.777296
vt -0.02701759 -0.05002332
vt 2.972981 -2.677296
vt -0.0249995 0.04999995
vt 0.0497734 -0.0505209
vt -0.04948169 -0.05049753
vt 0.05049789 0.04952335
vt -0.04948193 0.04948163
vt 0.02498674 -0.04999948
vt -2.972994 -2.777296
vt 0.02498674 0.04999995
vt -2.972994 -2.677296
vt 0.0507648 -2.777296
vt -0.04923511 -2.777296
vt 0.0507648 -2.677296
vt -0.04923511 -2.677296
vt -4.000766 0.04925299
vt 0.05213857 0.05000019
vt -4.000766 -0.0507648
vt 0.05213857 -0.05001783
vt 4.068058 -0.05076528
vt 0.01515341 -0.0500176
vt 4.068058 0.04923463
vt 0.01367664 0.04921675
vt 0.2000003 0.04999995
vt -0.6999996 0.04999995
vt 0.04999995 -0.04999995
vt -0.04999995 -0.04999924
vt 0.04999995 0.04999924
vt -0.04999995 0.04999995
vt 0.6999996 -0.04999995
vt -0.2000003 -0.04999995
vt -0.2000003 0.04999995
vt 0.6999996 0.04999995
vt 0.2000003 -0.04999995
vt -0.6999996 -0.04999995
vt 0.05 -0.04999995
vt -0.05000001 -0.04999948
vt -0.05 0.04999948
vt 0.02498674 -0.05000043
vt 0.02500004 -0.0999999
vt -0.07500011 -0.0999999
vt 0.02500015 1.9
vt -0.07499999 1.9
vt 0.05000019 -0.0999999
vt -0.05000036 -0.0999999
vt 0.05000036 1.9
vt -0.05000019 1.9
vt 0.07499999 -0.0999999
vt -0.02500015 -0.0999999
vt 0.07500011 1.9
vt -0.02500004 1.9
vt -0.02499998 0.05000019
vt 0.07500005 0.05000019
vt -0.02499998 -0.05000019
vt 0.07500005 -0.05000019
vt -0.07500005 -0.05000019
vt 0.02499998 0.05000019
vt -0.07500005 0.05000019
vt 0.04999995 -0.05
vt -0.04999995 -0.05
vt 0.04999995 0.05
vt -0.04999995 0.05
vt 0.0250001 -0.1000001
vt -0.07500029 1.9
vt 0.07500029 -0.0999999
vt -0.0250001 -0.1000001
vt 0.05000019 -0.1000001
vt -0.05000019 -0.1000001

vn 0 0 1
vn -1 0 0
vn 0 0 -1
vn 1 0 0
vn 0 1 0
vn 0 -1 0
vn 0.0037614 -0.999975 -0.003300194
vn 0.0075228 -0.9999499 -0.00659427
vn -0.02032231 0.02032217 -0.9995869
vn -0.01016116 0.01016108 -0.9997935
vn -0.7397118 0 0.6729238
vn 0.7397118 0 -0.6729239
vn 0.7397904 0.006927775 -0.6727661
vn 0.7398691 0.01385555 -0.6726083
vn 0.003761458 0.999975 0.003294444
vn 0.007522916 0.9999501 0.00658857
vn -0.02032231 -0.02032241 0.9995869
vn -0.01016116 -0.01016121 0.9997935
vn -0.7397118 0 -0.6729239
vn 0.7397118 0 0.6729239
vn 0.7397904 -0.006924239 0.6727662
vn 0.739869 -0.01384848 0.6726085

usemtl Lit
f 3/3/1 4/4/1 2/2/1 1/1/1
f 4/7/2 6/8/2 5/6/2 2/5/2
f 6/11/3 8/12/3 7/10/3 5/9/3
f 8/7/4 3/8/4 1/6/4 7/5/4
f 8/10/5 6/9/5 4/11/5 3/12/5
f 1/3/6 2/4/6 5/2/6 7/1/6
f 11/15/7 12/16/8 10/14/7 9/13/6
f 12/19/10 14/20/3 13/18/10 10/17/9
f 14/23/5 16/24/5 15/22/5 13/21/5
f 16/27/1 11/28/1 9/26/1 15/25/1
f 16/31/11 14/32/11 12/30/11 11/29/11
f 9/35/13 10/36/14 13/34/13 15/33/12
f 18/37/3 11/38/3 16/2/3 17/1/3
f 11/41/2 20/42/2 19/40/2 16/39/2
f 20/11/1 22/12/1 21/44/1 19/43/1
f 22/41/4 18/42/4 17/40/4 21/39/4
f 22/44/6 20/43/6 11/46/6 18/45/6
f 17/37/5 16/38/5 19/48/5 21/47/5
f 25/37/3 26/38/3 24/48/3 23/47/3
f 26/19/2 28/8/2 27/50/2 24/49/2
f 28/46/1 30/45/1 29/10/1 27/9/1
f 30/7/4 25/51/4 23/50/4 29/49/4
f 30/10/6 28/9/6 26/11/6 25/12/6
f 23/3/5 24/4/5 27/2/5 29/1/5
f 33/15/15 34/16/16 32/14/15 31/13/5
f 34/19/18 36/20/1 35/18/18 32/17/17
f 36/23/6 38/24/6 37/22/6 35/52/6
f 38/27/3 33/28/3 31/26/3 37/25/3
f 38/31/19 36/32/19 34/30/19 33/29/19
f 31/35/21 32/36/22 35/34/21 37/33/20
f 40/55/1 41/56/1 37/54/1 39/53/1
f 41/59/4 43/60/4 42/58/4 37/57/4
f 43/63/3 45/64/3 44/62/3 42/61/3
f 45/59/2 40/60/2 39/58/2 44/57/2
f 45/67/6 43/68/6 41/66/6 40/65/6
f 39/70/5 37/71/5 42/69/5 44/52/5
f 48/3/1 49/4/1 47/48/1 46/1/1
f 49/74/2 51/75/2 50/73/2 47/72/2
f 51/11/3 53/12/3 52/10/3 50/43/3
f 53/74/4 48/75/4 46/73/4 52/72/4
f 53/44/5 51/43/5 49/46/5 48/45/5
f 46/37/6 47/38/6 50/48/6 52/47/6
f 55/55/1 56/77/1 54/54/1 47/76/1
f 56/59/4 58/60/4 57/58/4 54/57/4
f 58/63/3 59/64/3 50/79/3 57/78/3
f 59/59/2 55/60/2 47/81/2 50/80/2
f 59/67/6 58/68/6 56/66/6 55/65/6
f 47/70/5 54/71/5 57/69/5 50/52/5
f 62/37/1 63/38/1 61/48/1 60/47/1
f 63/41/2 65/42/2 64/40/2 61/39/2
f 65/46/3 67/45/3 66/44/3 64/43/3
f 67/41/4 62/42/4 60/40/4 66/39/4
f 67/44/5 65/43/5 63/46/5 62/45/5
f 60/37/6 61/38/6 64/48/6 66/47/6

